2.2Hz3min_grf.mot
version=1
nRows=27
nColumns 19
inDegrees=yes
endheader
time	1_ground_force_vx	1_ground_force_vy	1_ground_force_vz	1_ground_force_px	1_ground_force_py	1_ground_force_pz	1_ground_torque_x	1_ground_torque_y	1_ground_torque_z	2_ground_force_vx	2_ground_force_vy	2_ground_force_vz	2_ground_force_px	2_ground_force_py	2_ground_force_pz	2_ground_torque_x	2_ground_torque_y	2_ground_torque_z
            0.005000	          -20.070688	          737.027366	         -105.379666	           -0.168356	            0.005995	           -0.349482	           -0.120324	            4.418493	           -0.631753	           27.671004	          682.996434	          138.845541	           -0.189382	            0.006019	           -0.759236	           -0.184036	           -4.542516	           -0.923443
            0.005500	          -21.904727	          741.893171	         -105.124970	           -0.168481	            0.005995	           -0.349478	           -0.135479	            4.588553	           -0.650190	           26.579166	          687.041205	          139.611305	           -0.189197	            0.006020	           -0.759116	           -0.175657	           -4.540525	           -0.922665
            0.006000	          -23.784996	          746.399284	         -105.055129	           -0.168337	            0.005995	           -0.349459	           -0.153445	            4.815265	           -0.677745	           25.439729	          691.270556	          140.190033	           -0.189153	            0.006020	           -0.759073	           -0.168502	           -4.578696	           -0.928562
            0.006500	          -24.932006	          749.644373	         -105.175927	           -0.168245	            0.005996	           -0.349659	           -0.171447	            5.154989	           -0.723251	           24.018713	          695.681465	          141.191898	           -0.189117	            0.006020	           -0.759124	           -0.156042	           -4.519620	           -0.917279
            0.007000	          -26.491179	          753.068893	         -105.111521	           -0.168300	            0.005997	           -0.349771	           -0.187755	            5.337348	           -0.744974	           22.602247	          698.804287	          141.954515	           -0.188892	            0.006020	           -0.758936	           -0.147608	           -4.563670	           -0.927060
            0.007500	          -27.730459	          757.035936	         -105.412438	           -0.168228	            0.005997	           -0.349897	           -0.193092	            5.271381	           -0.734006	           20.992399	          703.583638	          142.723126	           -0.188952	            0.006020	           -0.758974	           -0.135808	           -4.551762	           -0.923333
            0.008000	          -29.152724	          761.362627	         -105.527932	           -0.168452	            0.005997	           -0.349866	           -0.198373	            5.180777	           -0.718077	           19.523764	          708.179539	          143.491020	           -0.188713	            0.006021	           -0.759072	           -0.124519	           -4.516624	           -0.915156
            0.008500	          -30.345447	          765.148203	         -105.554593	           -0.168465	            0.005997	           -0.349921	           -0.202331	            5.101695	           -0.703795	           17.590621	          711.668660	          144.255170	           -0.188664	            0.006021	           -0.758892	           -0.111412	           -4.507419	           -0.913653
            0.009000	          -31.766783	          770.013892	         -105.255053	           -0.168519	            0.005998	           -0.350008	           -0.216840	            5.256119	           -0.718472	           16.310695	          715.897001	          144.974734	           -0.188537	            0.006022	           -0.758980	           -0.101975	           -4.475808	           -0.906386
            0.009500	          -33.050670	          773.438071	         -105.099625	           -0.168504	            0.005998	           -0.350071	           -0.239384	            5.601954	           -0.761229	           14.370947	          721.227316	          145.839327	           -0.188467	            0.006022	           -0.759100	           -0.089489	           -4.491159	           -0.908157
            0.010000	          -33.922538	          776.863314	         -105.174481	           -0.168298	            0.005999	           -0.350239	           -0.258908	            5.929276	           -0.802726	           12.765126	          724.901610	          146.697837	           -0.188398	            0.006022	           -0.758895	           -0.079385	           -4.508086	           -0.912298
            0.010500	          -35.022825	          780.287257	         -104.927788	           -0.168361	            0.005999	           -0.350307	           -0.272268	            6.065974	           -0.815711	           10.968379	          729.497543	          147.090445	           -0.188231	            0.006023	           -0.759014	           -0.066851	           -4.446195	           -0.896498
            0.011000	          -36.077584	          783.531381	         -104.819539	           -0.168470	            0.006000	           -0.350535	           -0.275124	            5.975126	           -0.799342	            9.267614	          733.538989	          148.138051	           -0.187993	            0.006023	           -0.758799	           -0.056946	           -4.507349	           -0.910258
            0.011500	          -36.903445	          787.316832	         -104.801259	           -0.168422	            0.006000	           -0.350481	           -0.274495	            5.856208	           -0.779531	            7.659781	          737.765811	          148.951626	           -0.187792	            0.006024	           -0.758833	           -0.046649	           -4.493045	           -0.907126
            0.012000	          -37.591551	          791.101915	         -104.691615	           -0.168433	            0.006000	           -0.350590	           -0.274426	            5.775215	           -0.764271	            5.493716	          740.885927	          149.714563	           -0.187719	            0.006024	           -0.758801	           -0.032776	           -4.420133	           -0.893199
            0.012500	          -38.097447	          794.348308	         -105.089150	           -0.168397	            0.006001	           -0.350761	           -0.289306	            6.032156	           -0.798030	            3.559886	          744.559417	          150.432435	           -0.187552	            0.006024	           -0.758702	           -0.021266	           -4.447754	           -0.898634
            0.013000	          -38.967589	          797.049736	         -104.525123	           -0.168499	            0.006002	           -0.351000	           -0.311206	            6.365460	           -0.834767	            1.621425	          749.521785	          151.201842	           -0.187418	            0.006025	           -0.758883	           -0.009663	           -4.466833	           -0.901099
            0.013500	          -39.838971	          801.555453	         -104.320214	           -0.168583	            0.006001	           -0.350829	           -0.331992	            6.679650	           -0.869338	           -0.082828	          754.485334	          151.877278	           -0.187416	            0.006026	           -0.758964	            0.000491	           -4.471241	           -0.900057
            0.014000	          -40.297003	          803.717176	         -103.988805	           -0.168474	            0.006002	           -0.350982	           -0.337951	            6.740383	           -0.872103	           -2.346601	          758.710123	          152.597291	           -0.187273	            0.006025	           -0.758770	            0.013789	           -4.458244	           -0.896674
            0.014500	          -40.847761	          807.862954	         -103.923810	           -0.168603	            0.006002	           -0.351043	           -0.335599	            6.637284	           -0.853823	           -4.187375	          762.567985	          153.362716	           -0.187214	            0.006025	           -0.758668	            0.024273	           -4.420389	           -0.889000
            0.015000	          -41.535493	          811.467151	         -103.677368	           -0.168736	            0.006002	           -0.351068	           -0.336373	            6.571621	           -0.839625	           -5.933825	          766.242319	          154.033573	           -0.186974	            0.006026	           -0.758574	            0.034687	           -4.479175	           -0.900424
            0.015500	          -41.674035	          814.532458	         -103.847310	           -0.168847	            0.006002	           -0.351156	           -0.337258	            6.591824	           -0.840412	           -8.014166	          771.572584	          154.804354	           -0.186720	            0.006027	           -0.758763	            0.045842	           -4.413479	           -0.885498
            0.016000	          -41.949884	          817.597345	         -103.925191	           -0.168764	            0.006003	           -0.351256	           -0.352022	            6.860861	           -0.872087	           -9.806822	          775.062714	          155.427668	           -0.186697	            0.006027	           -0.758724	            0.056386	           -4.456326	           -0.893652
            0.016500	          -42.591477	          820.840566	         -103.588705	           -0.168754	            0.006003	           -0.351366	           -0.373724	            7.202562	           -0.908951	          -11.505656	          778.552301	          156.332496	           -0.186379	            0.006028	           -0.758663	            0.065174	           -4.410136	           -0.885551
            0.017000	          -42.912154	          823.363105	         -103.301944	           -0.168757	            0.006004	           -0.351483	           -0.386989	            7.425227	           -0.931594	          -13.582858	          782.963185	          156.677631	           -0.186377	            0.006028	           -0.758712	            0.076518	           -4.410747	           -0.882628
            0.017500	          -43.371440	          826.788427	         -103.377839	           -0.168750	            0.006004	           -0.351526	           -0.391598	            7.465022	           -0.933392	          -15.142697	          786.823401	          157.067512	           -0.186257	            0.006029	           -0.758662	            0.087773	           -4.560751	           -0.910428
            0.018000	          -43.921564	          830.572750	         -103.085099	           -0.168973	            0.006004	           -0.351585	           -0.385213	            7.284510	           -0.904104	          -16.984759	          791.049210	          157.928122	           -0.186202	            0.006029	           -0.758553	            0.097178	           -4.525977	           -0.903583
